<?xml version="1.0"?>
<svg xmlns="http://www.w3.org/2000/svg" viewBox="0 0 64 64" width="512" height="512"><g id="Delivery_Cart" data-name="Delivery Cart"><circle cx="51" cy="57" r="2"/><circle cx="25" cy="57" r="2"/><path d="M61,48H56V31h1a1,1,0,0,0,1-1V26a1,1,0,0,0-1-1H50.94L50,10.93A1,1,0,0,0,49,10H47V9A5,5,0,0,0,37,9v1H35a1,1,0,0,0-1,.93L33.46,19H24a1,1,0,0,0-1,1V31H21a1,1,0,0,0-1,1V48H17V15a1,1,0,0,0-1-1H5a3,3,0,0,0,0,6h6V53a1,1,0,0,0,1,1h9.03A4.924,4.924,0,0,0,20,57a5,5,0,0,0,10,0,4.924,4.924,0,0,0-1.03-3H47.03A4.924,4.924,0,0,0,46,57a5,5,0,0,0,10,0,4.924,4.924,0,0,0-1.03-3H61a1,1,0,0,0,1-1V49A1,1,0,0,0,61,48ZM56,27v2H42V27Zm-2,4V48H42V31ZM39,9a3,3,0,0,1,6,0v1H39Zm-3.06,3H37v2h2V12h6v2h2V12h1.06l.87,13H42V20a1,1,0,0,0-1-1H35.47ZM25,21H40v2H25Zm0,4H40v6H25Zm8,8v4.13l-1.45-.96a.975.975,0,0,0-1.1,0L29,37.13V33ZM22,33h5v6a.984.984,0,0,0,.53.88.963.963,0,0,0,1.02-.05L31,38.2l2.45,1.63A1,1,0,0,0,35,39V33h5V48H22ZM5,18a1,1,0,0,1,0-2H15v2Zm10,2V48H13V20ZM25,60a3,3,0,1,1,3-3A3.009,3.009,0,0,1,25,60Zm26,0a3,3,0,1,1,3-3A3.009,3.009,0,0,1,51,60Zm9-8H13V50H60Z"/><path d="M45,46h7a1,1,0,0,0,1-1V42a1,1,0,0,0-1-1H45a1,1,0,0,0-1,1v3A1,1,0,0,0,45,46Zm1-3h5v1H46Z"/></g></svg>
